<svg width="16" height="16" viewBox="0 0 16 16" fill="none" xmlns="http://www.w3.org/2000/svg">
<path d="M10.7551 6.92303C11.0583 6.92303 11.3154 6.81691 11.5264 6.60465C11.7374 6.39239 11.8429 6.13464 11.8429 5.83142C11.8429 5.52819 11.7368 5.27108 11.5245 5.06007C11.3123 4.84907 11.0545 4.74357 10.7513 4.74357C10.4481 4.74357 10.1909 4.8497 9.97994 5.06196C9.76894 5.27422 9.66344 5.53196 9.66344 5.83519C9.66344 6.13842 9.76957 6.39553 9.98183 6.60653C10.1941 6.81753 10.4518 6.92303 10.7551 6.92303V6.92303M5.08199 6.92303C5.38522 6.92303 5.64233 6.81691 5.85333 6.60465C6.06433 6.39239 6.16984 6.13464 6.16984 5.83142C6.16984 5.52819 6.06371 5.27108 5.85145 5.06007C5.63919 4.84907 5.38145 4.74357 5.07822 4.74357C4.77499 4.74357 4.51788 4.8497 4.30687 5.06196C4.09587 5.27422 3.99037 5.53196 3.99037 5.83519C3.99037 6.13842 4.0965 6.39553 4.30876 6.60653C4.52102 6.81753 4.77876 6.92303 5.08199 6.92303V6.92303M7.91664 12.2435C8.78629 12.2435 9.58116 12.0002 10.3012 11.5136C11.0213 11.0269 11.5523 10.3835 11.8942 9.5833H10.7916C10.4861 10.0972 10.0798 10.5034 9.57289 10.8021C9.06594 11.1007 8.51386 11.25 7.91664 11.25C7.31941 11.25 6.76733 11.1007 6.26039 10.8021C5.75344 10.5034 5.34719 10.0972 5.04164 9.5833H3.93909C4.28097 10.3835 4.81195 11.0269 5.53203 11.5136C6.25212 12.0002 7.04698 12.2435 7.91664 12.2435V12.2435M7.91803 15.8333C6.82309 15.8333 5.79389 15.6255 4.83044 15.2099C3.86699 14.7944 3.02893 14.2304 2.31624 13.5181C1.60355 12.8057 1.03934 11.968 0.623602 11.005C0.207867 10.042 0 9.01297 0 7.91803C0 6.82309 0.207775 5.79389 0.623325 4.83044C1.03888 3.86699 1.60284 3.02893 2.31521 2.31624C3.02758 1.60355 3.86528 1.03934 4.8283 0.623603C5.79132 0.207868 6.8203 0 7.91524 0C9.01018 0 10.0394 0.207775 11.0028 0.623325C11.9663 1.03888 12.8043 1.60284 13.517 2.31521C14.2297 3.02758 14.7939 3.86528 15.2097 4.8283C15.6254 5.79132 15.8333 6.8203 15.8333 7.91524C15.8333 9.01018 15.6255 10.0394 15.2099 11.0028C14.7944 11.9663 14.2304 12.8043 13.5181 13.517C12.8057 14.2297 11.968 14.7939 11.005 15.2097C10.042 15.6254 9.01297 15.8333 7.91803 15.8333V15.8333M7.91664 7.91664V7.91664V7.91664V7.91664V7.91664V7.91664V7.91664V7.91664V7.91664V7.91664M7.91664 14.5833C9.77775 14.5833 11.3541 13.9375 12.6458 12.6458C13.9375 11.3541 14.5833 9.77775 14.5833 7.91664C14.5833 6.05552 13.9375 4.47914 12.6458 3.18747C11.3541 1.8958 9.77775 1.24997 7.91664 1.24997C6.05552 1.24997 4.47914 1.8958 3.18747 3.18747C1.8958 4.47914 1.24997 6.05552 1.24997 7.91664C1.24997 9.77775 1.8958 11.3541 3.18747 12.6458C4.47914 13.9375 6.05552 14.5833 7.91664 14.5833V14.5833" fill="#5F5E5E"/>
</svg>
